<svg xmlns="http://www.w3.org/2000/svg" xmlns:xlink="http://www.w3.org/1999/xlink" width="34" height="32" viewBox="0 0 34 32"><defs><path id="a" d="M764.15 556.43h3.1v-1.03c0-.57.47-1.04 1.04-1.04h20.67c.57 0 1.03.47 1.03 1.04v8.28a9.32 9.32 0 0 1-9.3 9.32h-4.14a9.29 9.29 0 0 1-8.73-6.22h-3.67c-1.4 0-2.69-.54-3.63-1.5a5.18 5.18 0 0 1 3.64-8.84zm5.17 7.25c0 4 3.25 7.25 7.23 7.25h4.14a7.25 7.25 0 0 0 7.23-7.25v-7.25h-18.6zm-7.34.13a3 3 0 0 0 2.17.9h3.2c-.03-.34-.1-.67-.1-1.03v-5.18h-3.1a3.1 3.1 0 0 0-2.17 5.3zm9.54-16.17c.69-1.22.26-1.77.19-1.85a1.04 1.04 0 0 1 1.4-1.52c.07.07 1.76 1.62.21 4.39-.7 1.25-.24 1.8-.21 1.82a1.04 1.04 0 0 1-1.38 1.55c-.07-.06-1.76-1.62-.21-4.39zm7.23 0c.69-1.22.26-1.77.2-1.85a1.04 1.04 0 0 1 1.4-1.52c.06.07 1.76 1.62.2 4.39-.7 1.25-.23 1.8-.2 1.82a1.04 1.04 0 0 1-1.38 1.55c-.07-.06-1.77-1.62-.22-4.39zm7.24 0c.68-1.22.25-1.77.19-1.85a1.04 1.04 0 0 1 1.4-1.52c.07.07 1.76 1.62.21 4.39-.7 1.25-.24 1.8-.22 1.82a1.04 1.04 0 0 1-1.37 1.55c-.07-.06-1.76-1.62-.21-4.39z"/></defs><use fill="#fff" xlink:href="#a" transform="translate(-757 -542)"/></svg>