<svg xmlns="http://www.w3.org/2000/svg" xmlns:xlink="http://www.w3.org/1999/xlink" width="19" height="19" viewBox="0 0 19 19"><defs><path id="a" d="M1158.66 50.86l-2.31-2.33a1.2 1.2 0 0 0-1.7.04l-1.17 1.17-.23-.13c-.74-.41-1.75-.97-2.81-2.04s-1.62-2.08-2.03-2.82l-.13-.23.78-.78.39-.39c.48-.48.49-1.25.03-1.7l-2.32-2.33a1.2 1.2 0 0 0-1.7.03l-.65.66.02.02a3.75 3.75 0 0 0-.78 1.91c-.3 2.55.85 4.88 4 8.03 4.34 4.37 7.84 4.03 8 4.02a3.88 3.88 0 0 0 1.9-.78l.02.01.66-.65c.48-.48.5-1.25.03-1.7z"/></defs><use fill="#2c2626" xlink:href="#a" transform="translate(-1142 -37)"/></svg>