<svg xmlns="http://www.w3.org/2000/svg" xmlns:xlink="http://www.w3.org/1999/xlink" width="24" height="24" viewBox="0 0 24 24"><defs><path id="a" d="M1332.55 8884.82l-3.09-3.1a1.6 1.6 0 0 0-2.27.05l-1.56 1.56-.3-.17c-.98-.55-2.33-1.3-3.74-2.72-1.42-1.42-2.17-2.77-2.72-3.75-.05-.1-.1-.21-.16-.3l1.04-1.05.51-.52c.64-.63.66-1.66.05-2.27l-3.1-3.1a1.6 1.6 0 0 0-2.26.04l-.87.88.02.03a5 5 0 0 0-1.03 2.55c-.41 3.39 1.13 6.49 5.32 10.69 5.8 5.8 10.47 5.37 10.67 5.35a5.16 5.16 0 0 0 2.55-1.05l.02.02.88-.86c.63-.64.65-1.66.04-2.28z"/></defs><use fill="#705d50" xlink:href="#a" transform="translate(-1311 -8867)"/></svg>