<svg xmlns="http://www.w3.org/2000/svg" xmlns:xlink="http://www.w3.org/1999/xlink" width="171" height="148" viewBox="0 0 171 148"><defs><path id="a" d="M1418.41 3206l8.44 15.01c-18.75 13.6-34.21 28.62-44.52 49.74l17.34 14.08c14.06 11.26 18.27 22.52 18.27 34.73 0 19.7-13.58 31.44-31.4 31.44-11.7 0-21.08-4.7-28.58-11.27a84.4 84.4 0 0 1-7.96-35.66c0-41.3 29.52-77.43 68.41-98.08zm91.15 0l8.43 15.01c-18.74 13.6-34.2 28.62-44.51 49.74l17.33 14.08c14.06 11.26 18.28 22.52 18.28 34.73 0 19.7-13.59 31.44-31.4 31.44-11.71 0-21.08-4.7-28.58-11.27a84.4 84.4 0 0 1-7.97-35.66c0-41.3 29.52-77.43 68.42-98.08z"/></defs><g clip-path="url(#clip-4208)" transform="translate(-1348 -3204)"><use fill="#fafbe3" xlink:href="#a"/></g></svg>